# xmcd
#
# Track frame offsets: 
#        150
#        10637
#        20187
#        30697
#        45662
#        58595
#        72545
#        86517
#        98335
#        116620
#        148962
#        164292
#        192607
#        203402
#        213167
#        230730
#        242732
#        251937
#        261157
#        272297
#        282202
#        294047
#
# Disc length: 4078 seconds
#
# Revision: 3
# Processed by: cddbd v1.5.2PL0 Copyright (c) Steve Scherf et al.
# Submitted via: ExactAudioCopy v1.0b3
#
DISCID=3e0fec16
DTITLE=Buddy Guy - The Complete Chess Studio Recordings
DYEAR=1900
DGENRE=Blues
TTITLE0=First Time I Met The Blues
TTITLE1=Slop Around
TTITLE2=I Got My Eyes On You
TTITLE3=Broken Hearted Blues
TTITLE4=Let Me Love You Baby
TTITLE5=I Got A Strange Feeling
TTITLE6=Gully Hully
TTITLE7=Ten Years Ago
TTITLE8=Watch Yourself
TTITLE9=Stone Crazy
TTITLE10=Skippin'
TTITLE11=I Found A True Love
TTITLE12=Hard But It's Fair
TTITLE13=Baby (Baby, Baby, Baby)
TTITLE14=When My Left Eye Jumps
TTITLE15=That's It
TTITLE16=The Treasure Untold
TTITLE17=American Bandstand (aka American Bandstand Thing)
TTITLE18=No Lie
TTITLE19=$100 Bill
TTITLE20=My Love Is Real
TTITLE21=Buddy's Boogie
EXTD=
EXTT0=
EXTT1=
EXTT2=
EXTT3=
EXTT4=
EXTT5=
EXTT6=
EXTT7=
EXTT8=
EXTT9=
EXTT10=
EXTT11=
EXTT12=
EXTT13=
EXTT14=
EXTT15=
EXTT16=
EXTT17=
EXTT18=
EXTT19=
EXTT20=
EXTT21=
PLAYORDER=
